<?xml version="1.0" encoding="utf-8"?>
<!-- Generator: Adobe Illustrator 26.3.1, SVG Export Plug-In . SVG Version: 6.00 Build 0)  -->
<svg version="1.1" xmlns="http://www.w3.org/2000/svg" xmlns:xlink="http://www.w3.org/1999/xlink" x="0px" y="0px"
	 viewBox="0 0 500 500" style="enable-background:new 0 0 500 500;" xml:space="preserve">
<style type="text/css">
	.st0{fill:#92E3A9;}
	.st1{opacity:0.7;fill:#FFFFFF;}
	.st2{fill:none;stroke:#263238;stroke-linecap:round;stroke-linejoin:round;stroke-miterlimit:10;}
	.st3{fill:#263238;stroke:#263238;stroke-linecap:round;stroke-linejoin:round;stroke-miterlimit:10;}
	.st4{fill:#263238;}
	.st5{fill:none;stroke:#263238;stroke-width:2;stroke-miterlimit:10;}
	.st6{fill:#92E3A9;stroke:#263238;stroke-miterlimit:10;}
	.st7{fill:none;stroke:#263238;stroke-width:0.5;stroke-miterlimit:10;}
	.st8{fill:#263238;stroke:#263238;stroke-miterlimit:10;}
	.st9{fill:none;stroke:#263238;stroke-miterlimit:10;}
	.st10{fill:#FFFFFF;}
	.st11{fill:#DEDEDE;}
	.st12{fill:none;stroke:#263238;stroke-width:0.8211;stroke-linecap:round;stroke-linejoin:round;stroke-miterlimit:10;}
	.st13{fill:#263238;stroke:#263238;stroke-width:0.7251;stroke-linecap:round;stroke-linejoin:round;stroke-miterlimit:10;}
	.st14{fill:#263238;stroke:#263238;stroke-width:0.8831;stroke-linecap:round;stroke-linejoin:round;stroke-miterlimit:10;}
	.st15{fill:none;stroke:#FFFFFF;stroke-miterlimit:10;}
	.st16{opacity:0.15;fill:#FFFFFF;}
	.st17{fill:none;stroke:#92E3A9;stroke-width:2;stroke-miterlimit:10;}
	.st18{fill:#FFFFFF;stroke:#263238;stroke-miterlimit:10;}
	.st19{fill:#737373;stroke:#263238;stroke-miterlimit:10;}
</style>
<g id="Background_Simple">
	<g>
		<path class="st0" d="M459.2,137.5c-2.4-18.8-7.1-36.8-17-53.1C424,53.9,391,35.5,357.6,26.2c-28-7.8-58.2-10.1-86.1-2
			c-30.7,8.9-56.4,29.3-84,45.3c-20.1,11.7-41.4,21.3-63.1,29.7c-17.6,6.7-39.9,10.5-54.4,23.3c-8.9,7.8-16.7,16.9-23.4,26.6
			c-27,39.3-35.8,89.5-31.6,136.4c2.9,32.7,11.9,65.7,32,91.6c28.3,36.3,76.8,54.2,122.6,49.7c52-5.1,101.2-36.2,152.9-28.7
			c25.7,3.7,50.3,16.9,76.2,14.5c25.5-2.4,47.3-20,62.7-40.5c12.3-16.4,20.6-36.3,21.3-57c0.8-22.4-9.3-42.8-14.4-64.2
			C459.7,213.5,464.1,175.3,459.2,137.5z"/>
		<path class="st1" d="M459.2,137.5c-2.4-18.8-7.1-36.8-17-53.1C424,53.9,391,35.5,357.6,26.2c-28-7.8-58.2-10.1-86.1-2
			c-30.7,8.9-56.4,29.3-84,45.3c-20.1,11.7-41.4,21.3-63.1,29.7c-17.6,6.7-39.9,10.5-54.4,23.3c-8.9,7.8-16.7,16.9-23.4,26.6
			c-27,39.3-35.8,89.5-31.6,136.4c2.9,32.7,11.9,65.7,32,91.6c28.3,36.3,76.8,54.2,122.6,49.7c52-5.1,101.2-36.2,152.9-28.7
			c25.7,3.7,50.3,16.9,76.2,14.5c25.5-2.4,47.3-20,62.7-40.5c12.3-16.4,20.6-36.3,21.3-57c0.8-22.4-9.3-42.8-14.4-64.2
			C459.7,213.5,464.1,175.3,459.2,137.5z"/>
	</g>
</g>
<g id="Furniture">
	<g>
		<g>
			
				<rect x="334.9" y="309.7" transform="matrix(-1 -1.224647e-16 1.224647e-16 -1 815.8026 624.9847)" class="st2" width="145.9" height="5.5"/>
			
				<rect x="341.7" y="315.4" transform="matrix(-1 -1.224647e-16 1.224647e-16 -1 815.8026 779.4005)" class="st2" width="132.4" height="148.6"/>
			<g>
				
					<rect x="346.5" y="322.3" transform="matrix(-1 -1.224647e-16 1.224647e-16 -1 815.9564 676.8706)" class="st2" width="123" height="32.2"/>
				
					<rect x="402" y="335.5" transform="matrix(-1 -1.224647e-16 1.224647e-16 -1 816.3806 676.8705)" class="st3" width="12.3" height="5.9"/>
			</g>
			<g>
				
					<rect x="346.5" y="363" transform="matrix(-1 -1.224647e-16 1.224647e-16 -1 815.9564 758.3261)" class="st2" width="123" height="32.2"/>
				
					<rect x="402" y="376.2" transform="matrix(-1 -1.224647e-16 1.224647e-16 -1 816.3806 758.326)" class="st3" width="12.3" height="5.9"/>
			</g>
			<g>
				
					<rect x="346.5" y="404" transform="matrix(-1 -1.224647e-16 1.224647e-16 -1 815.9564 840.1586)" class="st2" width="123" height="32.2"/>
				
					<rect x="402" y="417.1" transform="matrix(-1 -1.224647e-16 1.224647e-16 -1 816.3806 840.1585)" class="st3" width="12.3" height="5.9"/>
			</g>
		</g>
		<g>
			<path class="st4" d="M414,244.7c1.5,0.7,5.1,0.6,5.1,0.6c0,0-0.8-2.4-0.9-2.5c-0.8-1.7-3.3-4.4-5.4-4.2c-1.5,0.2-2.3,1.7-2,3.1
				C411.2,243.1,412.7,244.2,414,244.7z"/>
			<path class="st4" d="M450.9,245.5c0,0,0.7-2.4,0.7-2.6c0.3-1.8-0.3-5.5-2.2-6.4c-1.3-0.7-2.9,0.1-3.3,1.5
				c-0.5,1.4,0.1,3.1,0.9,4.2C447.8,243.6,450.9,245.5,450.9,245.5z"/>
			<path class="st4" d="M461.8,232.3c-2.1-0.2-4.5,2.6-5.3,4.3c-0.1,0.1-0.8,2.6-0.8,2.6c0,0,0,0,0,0c-0.4,0.4-0.8,0.9-1.2,1.5
				c-0.8,1-1.7,2.1-2.6,3.4c-0.9,1.3-1.9,2.7-2.7,4.3c-0.9,1.6-1.7,3.3-2.3,5.2c0,0,0,0,0,0.1c0-0.6,0-2.3,0-2.4
				c-0.2-1.8-1.8-5.3-3.8-5.6c-1.5-0.3-2.7,0.9-2.8,2.3c-0.1,1.5,0.9,2.9,2,3.9c1.2,1,4.4,2.1,4.7,2.1c-0.6,1.8-1,3.7-1.4,5.6
				c-0.2,1.1-0.4,2.2-0.5,3.4c0-0.5,0-1,0-1.1c-0.2-1.8-1.8-5.3-3.8-5.6c-1.5-0.3-2.7,0.9-2.8,2.3c-0.1,1.5,0.9,2.9,2,3.9
				c1,0.9,3.8,1.9,4.5,2.1c-0.1,0.4-0.1,0.9-0.2,1.3c-0.2,2.1-0.5,4.2-0.8,6.2c-0.1,0.7-0.2,1.4-0.4,2.1c0-0.5,0-0.9,0-0.9
				c-0.2-1.8-1.8-5.3-3.8-5.6c-1.5-0.3-2.7,0.9-2.8,2.3c-0.1,1.5,0.9,2.9,2,3.8c1,0.9,3.5,1.8,4.4,2c-0.2,0.7-0.3,1.4-0.5,2.1
				c-0.1,0.5-0.2,0.9-0.4,1.4c-0.1,0.5-0.3,0.9-0.4,1.4c-0.3,0.9-0.6,1.7-1,2.6c-0.2,0.6-0.4,1.1-0.7,1.7c0.1-0.7,0.3-2.1,0.3-2.2
				c0-1.2-0.4-3.2-1.3-4.6c0-0.2,0-0.4,0-0.5c-0.2-1.4-1.6-2.5-3-2.1c-2,0.5-3.3,4.1-3.4,5.9c0,0.1,0.1,1.3,0.1,2.1
				c-0.1-0.4-0.2-0.9-0.3-1.3c-0.2-0.9-0.4-1.8-0.7-2.7c-0.1-0.5-0.3-0.9-0.4-1.4c-0.1-0.5-0.3-0.9-0.5-1.4
				c-0.4-1.1-0.9-2.2-1.3-3.2c0.8-0.2,3.5-0.9,4.6-1.7c1.1-0.8,2.3-2.2,2.3-3.7c0-1.4-1.2-2.7-2.7-2.5c-2.1,0.2-3.9,3.5-4.2,5.3
				c0,0.1-0.1,1.4-0.2,2.2c-0.3-0.6-0.6-1.3-0.9-1.9c-0.9-1.9-1.9-3.7-2.9-5.6c-0.3-0.6-0.6-1.1-0.9-1.7c0.3-0.1,3.6-0.8,4.8-1.8
				c1.1-0.8,2.3-2.2,2.3-3.7c0-1.4-1.2-2.7-2.7-2.5c-2.1,0.2-3.9,3.5-4.2,5.3c0,0.1-0.2,2.1-0.2,2.5c-0.7-1.3-1.3-2.5-1.9-3.8
				c-0.8-1.7-1.5-3.5-2-5.2c0.1,0,3.6-0.8,4.8-1.8c1.1-0.8,2.3-2.2,2.3-3.7c0-1.4-1.2-2.7-2.7-2.5c-2.1,0.2-3.9,3.5-4.2,5.3
				c0,0.1-0.2,1.6-0.2,2.3c-0.1,0-0.1,0-0.1,0c-0.6-1.9-0.9-3.8-1.1-5.6c-0.1-1-0.2-2-0.2-3c0.7-0.1,3.6-0.5,4.9-1.2
				c1.2-0.7,2.5-2,2.6-3.4c0.1-1.4-0.9-2.8-2.4-2.8c-2.1,0-4.2,3.1-4.8,4.8c0,0.1-0.2,1.1-0.4,1.8c0-0.4,0-0.9,0-1.3
				c0-1.6,0.1-3,0.2-4.3c0.1-0.7,0.1-1.4,0.2-2c0.6-0.4,3-2.1,3.7-3.3c0.7-1.2,1.3-2.9,0.8-4.3c-0.5-1.3-2.1-2.1-3.4-1.4
				c-1.8,1-2.3,4.7-2,6.5c0,0.2,0.7,2.6,0.8,2.6c0,0,0,0,0,0c-0.1,0.6-0.2,1.2-0.2,1.9c-0.1,1.3-0.3,2.7-0.3,4.3
				c0,1.6,0,3.3,0.1,5.1c0.2,1.8,0.4,3.7,0.9,5.6c0,0,0,0,0,0.1c-0.3-0.5-1.3-1.9-1.4-2c-1.2-1.4-4.4-3.4-6.3-2.6
				c-1.4,0.6-1.8,2.2-1.1,3.5c0.7,1.3,2.4,1.9,3.8,2.1c1.5,0.2,4.8-0.7,5.1-0.8c0.5,1.8,1.2,3.7,2,5.5c0.4,1,0.9,2.1,1.4,3.1
				c-0.3-0.4-0.6-0.8-0.6-0.9c-1.2-1.4-4.4-3.4-6.3-2.6c-1.4,0.6-1.8,2.2-1.1,3.5c0.7,1.3,2.4,1.9,3.8,2.1c1.4,0.2,4.2-0.5,4.9-0.8
				c0.2,0.4,0.4,0.8,0.6,1.2c0.9,1.9,1.9,3.7,2.8,5.6c0.3,0.7,0.6,1.3,0.9,2c-0.3-0.4-0.5-0.7-0.5-0.8c-1.2-1.4-4.4-3.4-6.3-2.6
				c-1.4,0.6-1.8,2.2-1.1,3.5c0.7,1.3,2.4,1.9,3.8,2.1c1.3,0.2,3.9-0.5,4.8-0.7c0.3,0.7,0.5,1.4,0.8,2c0.1,0.5,0.3,0.9,0.4,1.4
				c0.1,0.5,0.3,0.9,0.4,1.4c0.2,0.9,0.4,1.8,0.6,2.7c0.1,0.6,0.3,1.2,0.4,1.8c-0.3-0.7-0.9-1.9-1-2c-1-1.6-3.8-4-5.8-3.5
				c-1.5,0.4-2.1,1.9-1.6,3.3c0.5,1.4,2.1,2.3,3.4,2.7c1.5,0.4,4.7,0,5.1,0c0.2,1,0.4,1.9,0.5,2.8c0.3,2,0.6,3.7,0.8,5.2h-8.2v17.2
				h21.5v-17.2h-8.3c0.5-1.2,1.1-2.6,1.7-4.1c0.4-0.9,0.8-1.9,1.2-2.9c0.4,0.1,3.6,0.7,5.1,0.4c1.4-0.3,3-1.1,3.6-2.4
				c0.6-1.3,0.1-2.9-1.4-3.4c-2-0.7-5,1.6-6.1,3.1c-0.1,0.1-0.7,1.1-1,1.8c0.2-0.4,0.3-0.8,0.5-1.3c0.3-0.9,0.6-1.7,0.9-2.7
				c0.1-0.5,0.3-0.9,0.4-1.4c0.1-0.5,0.2-1,0.4-1.4c0.3-1.1,0.5-2.3,0.7-3.4c0.8,0.3,3.4,1.2,4.8,1.1c1.4-0.1,3.1-0.6,3.9-1.8
				c0.8-1.2,0.5-2.9-0.8-3.6c-1.8-1-5.2,0.8-6.5,2.1c-0.1,0.1-0.9,1.1-1.4,1.7c0.1-0.7,0.2-1.4,0.3-2.1c0.3-2.1,0.5-4.2,0.7-6.2
				c0.1-0.6,0.1-1.3,0.2-1.9c0.3,0.1,3.4,1.3,5,1.2c1.4-0.1,3.1-0.6,3.9-1.8c0.8-1.2,0.5-2.9-0.8-3.6c-1.8-1-5.2,0.8-6.5,2.1
				c-0.1,0.1-1.3,1.6-1.6,2c0.1-1.4,0.3-2.8,0.5-4.2c0.3-1.9,0.7-3.7,1.2-5.5c0.1,0,3.4,1.3,5,1.2c1.4-0.1,3.1-0.6,3.9-1.8
				c0.8-1.2,0.5-2.9-0.8-3.6c-1.8-1-5.2,0.8-6.5,2.1c-0.1,0.1-1,1.2-1.4,1.8c-0.1,0,0,0-0.1-0.1c0.6-1.9,1.4-3.6,2.2-5.2
				c0.5-0.9,1-1.8,1.5-2.6c0.6,0.3,3.3,1.6,4.7,1.7c1.4,0.1,3.2-0.3,4.1-1.4c0.9-1.1,0.8-2.8-0.4-3.6c-1.7-1.1-5.2,0.2-6.7,1.4
				c-0.1,0.1-0.8,0.8-1.3,1.3c0.2-0.4,0.5-0.8,0.7-1.1c0.9-1.3,1.7-2.5,2.5-3.5c0.5-0.6,0.9-1.1,1.3-1.5c0.7,0,3.7-0.1,5-0.7
				c1.3-0.6,2.7-1.7,3-3.1C464.1,233.9,463.2,232.5,461.8,232.3z M438.9,287.8c-0.7,1.7-1.5,3.2-2.1,4.6h-2.2
				c-0.2-1.5-0.5-3.4-1-5.4c-0.2-1-0.4-2-0.7-3.1c0.2-0.1,1.6-0.7,2.8-1.3c1.1,1.2,3.8,2.5,4.1,2.7
				C439.6,286.1,439.2,287,438.9,287.8z"/>
		</g>
	</g>
</g>
<g id="Plant">
	<g>
		<g>
			<line class="st5" x1="28.5" y1="317" x2="40.1" y2="428.1"/>
			<g>
				<g>
					<line class="st5" x1="38.2" y1="406.8" x2="32.9" y2="401.3"/>
					<path class="st6" d="M34.5,402.9c0,0,0.2-2.5-2.1-4.5c-1.3-1.2-8.5-4.2-9.1-1.7C22.6,399.5,29.9,404.8,34.5,402.9z"/>
					<line class="st7" x1="34.5" y1="402.9" x2="27.8" y2="398.7"/>
				</g>
				<g>
					<line class="st5" x1="39.5" y1="419.5" x2="34.3" y2="413.9"/>
					<path class="st6" d="M35.9,415.6c0,0,0.2-2.5-2.1-4.5c-1.3-1.2-8.5-4.2-9.1-1.7C23.9,412.1,31.2,417.5,35.9,415.6z"/>
					<line class="st7" x1="35.9" y1="415.6" x2="29.1" y2="411.4"/>
				</g>
				<g>
					<line class="st5" x1="35" y1="376" x2="29.7" y2="370.4"/>
					<path class="st6" d="M31.3,372.1c0,0,0.2-2.5-2.1-4.5c-1.3-1.2-8.5-4.2-9.1-1.7C19.4,368.7,26.6,374,31.3,372.1z"/>
					<line class="st7" x1="31.3" y1="372.1" x2="24.6" y2="367.9"/>
				</g>
				<g>
					<line class="st5" x1="36.3" y1="388.6" x2="31" y2="383.1"/>
					<path class="st6" d="M32.6,384.7c0,0,0.2-2.5-2.1-4.5c-1.3-1.2-8.5-4.2-9.1-1.7C20.7,381.3,28,386.6,32.6,384.7z"/>
					<line class="st7" x1="32.6" y1="384.7" x2="25.9" y2="380.5"/>
				</g>
				<g>
					<line class="st5" x1="32.8" y1="355.4" x2="27.6" y2="349.9"/>
					<path class="st6" d="M29.2,351.6c0,0,0.2-2.5-2.1-4.5c-1.3-1.2-8.5-4.2-9.1-1.7C17.2,348.1,24.5,353.5,29.2,351.6z"/>
					<line class="st7" x1="29.2" y1="351.6" x2="22.4" y2="347.3"/>
				</g>
				<g>
					<line class="st5" x1="30.7" y1="334.8" x2="25.4" y2="329.3"/>
					<path class="st6" d="M27,330.9c0,0,0.2-2.5-2.1-4.5c-1.3-1.2-8.5-4.2-9.1-1.7C15.1,327.5,22.3,332.9,27,330.9z"/>
					<line class="st7" x1="27" y1="330.9" x2="20.3" y2="326.7"/>
				</g>
				<g>
					<line class="st5" x1="37.3" y1="399.3" x2="41.3" y2="392.8"/>
					<path class="st6" d="M40.1,394.8c0,0-0.7-2.4,1.1-4.8c1.1-1.5,7.4-5.8,8.6-3.5C51.1,389,45.1,395.7,40.1,394.8z"/>
					<line class="st7" x1="40.1" y1="394.8" x2="46.2" y2="389"/>
				</g>
				<g>
					<line class="st5" x1="33.8" y1="366.1" x2="37.8" y2="359.6"/>
					<path class="st6" d="M36.6,361.5c0,0-0.7-2.4,1.1-4.8c1.1-1.5,7.4-5.8,8.6-3.5C47.6,355.7,41.6,362.4,36.6,361.5z"/>
					<line class="st7" x1="36.6" y1="361.5" x2="42.7" y2="355.7"/>
				</g>
				<g>
					<line class="st5" x1="32.3" y1="351.5" x2="36.3" y2="344.9"/>
					<path class="st6" d="M35.1,346.9c0,0-0.7-2.4,1.1-4.8c1.1-1.5,7.4-5.8,8.6-3.5C46.1,341.1,40.1,347.8,35.1,346.9z"/>
					<line class="st7" x1="35.1" y1="346.9" x2="41.2" y2="341.1"/>
				</g>
				<g>
					<line class="st5" x1="30.1" y1="330" x2="34.1" y2="323.5"/>
					<path class="st6" d="M32.9,325.5c0,0-0.7-2.4,1.1-4.8c1.1-1.5,7.4-5.8,8.6-3.5C43.8,319.7,37.8,326.4,32.9,325.5z"/>
					<line class="st7" x1="32.9" y1="325.5" x2="38.9" y2="319.7"/>
					<path class="st6" d="M28.4,316.3c0,0-0.7-2.4,1.1-4.8c1.1-1.5,7.4-5.8,8.6-3.5C39.4,310.5,33.3,317.2,28.4,316.3z"/>
					<line class="st7" x1="28.4" y1="316.3" x2="34.5" y2="310.5"/>
					<path class="st6" d="M28.7,316.6c0,0-2.4,0.4-4.7-1.6c-1.3-1.2-5-8-2.6-8.9C24.1,305.1,30.1,311.7,28.7,316.6z"/>
					<line class="st7" x1="28.7" y1="316.6" x2="23.6" y2="309.9"/>
				</g>
			</g>
		</g>
		<g>
			<line class="st5" x1="59.1" y1="332.3" x2="47.5" y2="443.4"/>
			<g>
				<g>
					<line class="st5" x1="50.1" y1="422.2" x2="46.1" y2="415.7"/>
					<path class="st6" d="M47.3,417.6c0,0,0.7-2.4-1.1-4.8c-1.1-1.5-7.4-5.8-8.6-3.5C36.3,411.8,42.3,418.6,47.3,417.6z"/>
					<line class="st7" x1="47.3" y1="417.6" x2="41.5" y2="412.1"/>
				</g>
				<g>
					<line class="st5" x1="53.3" y1="391.4" x2="49.3" y2="384.8"/>
					<path class="st6" d="M50.5,386.8c0,0,0.7-2.4-1.1-4.8c-1.1-1.5-7.4-5.8-8.6-3.5C39.5,381,45.5,387.7,50.5,386.8z"/>
					<line class="st7" x1="50.5" y1="386.8" x2="44.7" y2="381.3"/>
				</g>
				<g>
					<line class="st5" x1="52" y1="404" x2="48" y2="397.5"/>
					<path class="st6" d="M49.2,399.4c0,0,0.7-2.4-1.1-4.8c-1.1-1.5-7.4-5.8-8.6-3.5C38.2,393.6,44.2,400.3,49.2,399.4z"/>
					<line class="st7" x1="49.2" y1="399.4" x2="43.4" y2="393.9"/>
				</g>
				<g>
					<line class="st5" x1="55.4" y1="370.8" x2="51.4" y2="364.3"/>
					<path class="st6" d="M52.6,366.3c0,0,0.7-2.4-1.1-4.8c-1.1-1.5-7.4-5.8-8.6-3.5C41.6,360.4,47.7,367.2,52.6,366.3z"/>
					<line class="st7" x1="52.6" y1="366.3" x2="46.9" y2="360.8"/>
				</g>
				<g>
					<line class="st5" x1="57.5" y1="350.2" x2="53.5" y2="343.7"/>
					<path class="st6" d="M54.8,345.6c0,0,0.7-2.4-1.1-4.8c-1.1-1.5-7.4-5.8-8.6-3.5C43.8,339.8,49.8,346.6,54.8,345.6z"/>
					<line class="st7" x1="54.8" y1="345.6" x2="49" y2="340.1"/>
				</g>
				<g>
					<line class="st5" x1="50.8" y1="414.7" x2="56" y2="409.1"/>
					<path class="st6" d="M54.4,410.8c0,0-0.2-2.5,2.1-4.5c1.3-1.2,8.4-4.2,9.1-1.7C66.4,407.4,59.1,412.7,54.4,410.8z"/>
					<line class="st7" x1="54.4" y1="410.8" x2="61.6" y2="406.4"/>
				</g>
				<g>
					<line class="st5" x1="54.2" y1="381.4" x2="59.5" y2="375.9"/>
					<path class="st6" d="M57.9,377.6c0,0-0.2-2.5,2.1-4.5c1.3-1.2,8.4-4.2,9.1-1.7C69.8,374.1,62.5,379.5,57.9,377.6z"/>
					<line class="st7" x1="57.9" y1="377.6" x2="65" y2="373.1"/>
				</g>
				<g>
					<line class="st5" x1="55.7" y1="366.8" x2="61" y2="361.3"/>
					<path class="st6" d="M59.4,362.9c0,0-0.2-2.5,2.1-4.5c1.3-1.2,8.4-4.2,9.1-1.7C71.3,359.5,64.1,364.8,59.4,362.9z"/>
					<line class="st7" x1="59.4" y1="362.9" x2="66.5" y2="358.5"/>
				</g>
				<g>
					<line class="st5" x1="57.9" y1="345.4" x2="63.2" y2="339.8"/>
					<path class="st6" d="M61.6,341.5c0,0-0.2-2.5,2.1-4.5c1.3-1.2,8.4-4.2,9.1-1.7C73.6,338.1,66.3,343.4,61.6,341.5z"/>
					<line class="st7" x1="61.6" y1="341.5" x2="68.8" y2="337.1"/>
					<path class="st6" d="M59.1,331.6c0,0-0.2-2.5,2.1-4.5c1.3-1.2,8.4-4.2,9.1-1.7C71,328.2,63.8,333.5,59.1,331.6z"/>
					<line class="st7" x1="59.1" y1="331.6" x2="66.2" y2="327.2"/>
					<path class="st6" d="M59.4,332c0,0-2.5-0.1-4.2-2.5c-1.1-1.5-3.3-8.8-0.7-9.3C57.2,319.7,61.8,327.5,59.4,332z"/>
					<line class="st7" x1="59.4" y1="332" x2="55.7" y2="324.4"/>
				</g>
			</g>
		</g>
		<line class="st5" x1="45.8" y1="287" x2="45.8" y2="427.5"/>
		<g>
			<g>
				<line class="st5" x1="46" y1="406.4" x2="41.3" y2="400.3"/>
				<path class="st6" d="M42.7,402.2c0,0,0.4-2.4-1.6-4.7c-1.2-1.3-8-5-8.9-2.6C31.2,397.5,37.9,403.6,42.7,402.2z"/>
				<line class="st7" x1="42.7" y1="402.2" x2="36.4" y2="397.3"/>
			</g>
			<g>
				<line class="st5" x1="46" y1="380" x2="41.3" y2="373.9"/>
				<path class="st6" d="M42.7,375.8c0,0,0.4-2.4-1.6-4.7c-1.2-1.3-8-5-8.9-2.6C31.2,371.1,37.9,377.2,42.7,375.8z"/>
				<line class="st7" x1="42.7" y1="375.8" x2="36.4" y2="370.9"/>
			</g>
			<g>
				<line class="st5" x1="46" y1="349" x2="41.3" y2="342.9"/>
				<path class="st6" d="M42.7,344.7c0,0,0.4-2.4-1.6-4.7c-1.2-1.3-8-5-8.9-2.6C31.2,340.1,37.9,346.2,42.7,344.7z"/>
				<line class="st7" x1="42.7" y1="344.7" x2="36.4" y2="339.9"/>
			</g>
			<g>
				<line class="st5" x1="46" y1="328.4" x2="41.3" y2="322.3"/>
				<path class="st6" d="M42.7,324.1c0,0,0.4-2.4-1.6-4.7c-1.2-1.3-8-5-8.9-2.6C31.2,319.5,37.9,325.5,42.7,324.1z"/>
				<line class="st7" x1="42.7" y1="324.1" x2="36.4" y2="319.2"/>
			</g>
			<g>
				<line class="st5" x1="46" y1="307.6" x2="41.3" y2="301.6"/>
				<path class="st6" d="M42.7,303.4c0,0,0.4-2.4-1.6-4.7c-1.2-1.3-8-5-8.9-2.6C31.2,298.7,37.9,304.8,42.7,303.4z"/>
				<line class="st7" x1="42.7" y1="303.4" x2="36.4" y2="298.5"/>
			</g>
			<g>
				<line class="st5" x1="45.9" y1="414.5" x2="50.5" y2="408.4"/>
				<path class="st6" d="M49.1,410.2c0,0-0.4-2.4,1.6-4.7c1.2-1.3,8-5,8.9-2.6C60.6,405.6,53.9,411.6,49.1,410.2z"/>
				<line class="st7" x1="49.1" y1="410.2" x2="55.8" y2="405.1"/>
			</g>
			<g>
				<line class="st5" x1="45.9" y1="372.5" x2="50.5" y2="366.4"/>
				<path class="st6" d="M49.1,368.2c0,0-0.4-2.4,1.6-4.7c1.2-1.3,8-5,8.9-2.6C60.6,363.6,53.9,369.6,49.1,368.2z"/>
				<line class="st7" x1="49.1" y1="368.2" x2="55.8" y2="363.1"/>
			</g>
			<g>
				<line class="st5" x1="45.9" y1="351.7" x2="50.5" y2="345.7"/>
				<path class="st6" d="M49.1,347.5c0,0-0.4-2.4,1.6-4.7c1.2-1.3,8-5,8.9-2.6C60.6,342.8,53.9,348.9,49.1,347.5z"/>
				<line class="st7" x1="49.1" y1="347.5" x2="55.8" y2="342.3"/>
			</g>
			<g>
				<line class="st5" x1="45.9" y1="324.3" x2="50.5" y2="318.3"/>
				<path class="st6" d="M49.1,320.1c0,0-0.4-2.4,1.6-4.7c1.2-1.3,8-5,8.9-2.6C60.6,315.4,53.9,321.5,49.1,320.1z"/>
				<line class="st7" x1="49.1" y1="320.1" x2="55.8" y2="314.9"/>
			</g>
			<g>
				<line class="st5" x1="45.9" y1="302.8" x2="50.5" y2="296.7"/>
				<path class="st6" d="M49.1,298.5c0,0-0.4-2.4,1.6-4.7c1.2-1.3,8-5,8.9-2.6C60.6,293.9,53.9,300,49.1,298.5z"/>
				<line class="st7" x1="49.1" y1="298.5" x2="55.8" y2="293.4"/>
				<path class="st6" d="M45.6,289c0,0-0.4-2.4,1.6-4.7c1.2-1.3,8-5,8.9-2.6C57.1,284.3,50.4,290.4,45.6,289z"/>
				<line class="st7" x1="45.6" y1="289" x2="52.2" y2="283.8"/>
				<path class="st6" d="M45.9,289.3c0,0-2.5,0.1-4.5-2.1c-1.2-1.4-4.2-8.5-1.7-9.1C42.5,277.3,47.8,284.6,45.9,289.3z"/>
				<line class="st7" x1="45.9" y1="289.3" x2="41.5" y2="282.1"/>
			</g>
		</g>
		<polygon class="st8" points="51.6,464 36.7,464 34.9,426.4 53.5,426.4 		"/>
	</g>
</g>
<g id="Picture">
	<g>
		<polyline class="st9" points="115.1,176.2 25.7,176.2 25.7,33.8 136.4,33.8 136.4,176.2 120.9,176.2 		"/>
		<rect x="29.7" y="39" class="st9" width="102.7" height="132"/>
		<path class="st9" d="M50.2,75.2c1.7,1.6,3.7,3.1,5.8,4.6c23.2,15.8,62.6,8.3,75.9,30.7"/>
		<path class="st9" d="M36.6,39.5c0,0-2.7,17.7,10.8,32.7"/>
		<path class="st9" d="M45.4,112.3c11.3-6,26-10.2,33.5,1.9c8.7,14.1-31.5,39-31.5,56.8"/>
		<path class="st9" d="M29.9,122.5c0,0,5.2-4.3,12.3-8.5"/>
		<path class="st9" d="M83.4,39.5c0,0,14.9,23.2,48.9,17"/>
		<path class="st9" d="M87.9,62.3C88,62.9,88,63.4,88,64c0,7.6-6.1,13.7-13.7,13.7c-7.6,0-13.7-6.1-13.7-13.7s6.1-13.7,13.7-13.7
			c5.2,0,9.8,3,12.1,7.3"/>
		<path class="st9" d="M122,82.5c0,3.6-2.9,6.4-6.4,6.4c-3.6,0-6.4-2.9-6.4-6.4c0-3.6,2.9-6.4,6.4-6.4C119.1,76,122,78.9,122,82.5z"
			/>
		<path class="st9" d="M122.1,125.8c3.7,1,7,2.7,9.9,5"/>
		<path class="st9" d="M97.5,171.1c-5.3-4.9-8.6-11.8-8.6-19.6c0-14.7,11.9-26.5,26.5-26.5c0.5,0,1,0,1.5,0"/>
	</g>
</g>
<g id="Floor">
	<g>
		<line class="st9" x1="322" y1="464" x2="481" y2="464"/>
		<line class="st9" x1="16" y1="464" x2="314" y2="464"/>
	</g>
</g>
<g id="Device">
	<g>
		<rect x="193.7" y="42.5" class="st10" width="201.8" height="373.9"/>
		<rect x="193.7" y="352.6" class="st11" width="201.8" height="63.8"/>
		<g>
			<path class="st4" d="M401.6,116.1c1.4,0,2.5-1.1,2.5-2.5V88.6c0-1.4-1.1-2.5-2.5-2.5c-0.2,0-0.3,0-0.5,0V39.6
				c0-8.9-7.2-16.1-16.1-16.1H207.9c-8.9,0-16.1,7.2-16.1,16.1v376.3c0,8.9,7.2,16.1,16.1,16.1H385c8.9,0,16.1-7.2,16.1-16.1V186.9
				c0.2,0,0.3,0,0.5,0c1.4,0,2.5-1.1,2.5-2.5v-24.9c0-1.4-1.1-2.5-2.5-2.5c-0.2,0-0.3,0-0.5,0v-5.6c0.2,0,0.3,0,0.5,0
				c1.4,0,2.5-1.1,2.5-2.5v-24.9c0-1.4-1.1-2.5-2.5-2.5c-0.2,0-0.3,0-0.5,0V116C401.3,116,401.4,116.1,401.6,116.1z M391.8,407.7
				H201.1V51.2h190.7V407.7z"/>
			<g>
				<g>
					<rect x="369.5" y="54.9" class="st12" width="15.8" height="8.7"/>
					<rect x="369.5" y="54.9" class="st13" width="12.3" height="8.7"/>
					<rect x="385.3" y="57.3" class="st13" width="2.2" height="3.8"/>
				</g>
				<g>
					<rect x="205.4" y="57.6" class="st14" width="2.9" height="5"/>
					<rect x="210" y="55.9" class="st14" width="2.9" height="6.7"/>
					<rect x="214.5" y="53.8" class="st14" width="2.9" height="8.8"/>
				</g>
			</g>
			<g>
				<g>
					<rect x="204.2" y="68.4" class="st0" width="183.1" height="48.1"/>
				</g>
				<line class="st15" x1="250.5" y1="75.3" x2="250.5" y2="110.7"/>
				<line class="st15" x1="297.1" y1="75.3" x2="297.1" y2="110.7"/>
				<line class="st15" x1="343.8" y1="75.3" x2="343.8" y2="110.7"/>
			</g>
		</g>
		<path class="st16" d="M399.5,186.9c0.2,0,0.3,0,0.5,0c1.4,0,2.5-1.1,2.5-2.5v-8.9l-12.3,21.6v210.5H270.8L257,431.9h126.4
			c8.9,0,16.1-7.2,16.1-16.1V186.9z"/>
		<g>
			<g>
				<path class="st4" d="M288.7,282.4c0-3.8,0-7.7,0-11.5l0,0c1.9,0,3.8,0,5.7,0c0-1.9,0-3.8,0-5.7c-1.9,0-3.8,0-5.7,0l0,0
					c0-1.9,0-3.8,0-5.7c3.8,0,7.6,0,11.5,0c0-1.9,0-3.8,0-5.7c1.9,0,3.8,0,5.7,0c0,1.9,0,3.8,0,5.7c1.9,0,3.8,0,5.7,0
					c0-3.8,0-7.6,0-11.4l0,0c0.2,0,0.5,0,0.7,0c5.5,0,11,0,16.5,0c0,1.9,0,3.8,0,5.7c1.9,0,3.8,0,5.7,0c0-1.9,0-3.8,0-5.7
					c-1.9,0-3.8,0-5.7,0c0-1.9,0-3.8,0-5.8c-3.9,0-7.6,0-11.5,0c0-3.8,0-7.6,0-11.4c-5.7,0-11.4,0-17.2,0c0,1.9,0,3.8,0,5.7
					c-3.8,0-7.6,0-11.4,0c0,3.8,0,7.6,0,11.5c1.9,0,3.8,0,5.7,0c0,1.9,0,3.8,0,5.7c-1.9,0-3.8,0-5.7,0c0,1.9,0,3.8,0,5.7
					c-1.9,0-3.8,0-5.7,0c0-1.9,0-3.8,0-5.7c-5.8,0-11.5,0-17.2,0c0-1.9,0-3.8,0-5.7c5.7,0,11.4,0,17.2,0c0-15.3,0-30.6,0-45.9
					c1.9,0,3.9,0,5.8,0l0,0c0,5.5,0,11,0,16.6c0,0.2,0,0.4,0,0.6c1.9,0,3.8,0,5.7,0c0-3.8,0-7.6,0-11.4c1.9,0,3.8,0,5.7,0
					c0,3.8,0,7.6,0,11.5c2,0,3.9,0,5.8,0l0,0c0,1.9,0,3.8,0,5.7c9.6,0,19.1,0,28.7,0c0,1.9,0,3.8,0,5.7c1.9,0,3.8,0,5.7,0
					c0,2,0,3.9,0,5.8l0,0c-1.9,0-3.8,0-5.7,0c0,1.9,0,3.8,0,5.7c1.9,0,3.8,0,5.7,0l0,0c0,3.8,0,7.6,0,11.5c1.9,0,3.8,0,5.7,0l0,0
					c0,3.8,0,7.6,0,11.5c-1.9,0-3.8,0-5.7,0c0,3.8,0,7.6,0,11.5c1.9,0,3.8,0,5.7,0l0,0c0,1.9,0,3.8,0,5.7c3.8,0,7.6,0,11.4,0
					c0,1.9,0,3.8,0,5.7c-5.7,0-11.4,0-17.2,0c0,3.8,0,7.6,0,11.5c-1.9,0-3.8,0-5.7,0c0-1.9,0-3.8,0-5.7c-3.9,0-7.7,0-11.5,0l0,0
					c0-1.9,0-3.8,0-5.7c-1.9,0-3.8,0-5.7,0c0-1.9,0-3.8,0-5.7c3.8,0,7.6,0,11.4,0c0-1.9,0-3.8,0-5.7c-9.5,0-19,0-28.6,0
					c0,1.9,0,3.8,0,5.7C296.3,282.4,292.5,282.4,288.7,282.4L288.7,282.4z M323.1,265.2c0-1.9,0-3.8,0-5.7c-1.9,0-3.8,0-5.7,0
					c0,1.9,0,3.8,0,5.7C319.3,265.2,321.2,265.2,323.1,265.2c0,1.9,0,3.8,0,5.7c3.8,0,7.6,0,11.4,0c0-1.9,0-3.8,0-5.7
					C330.7,265.2,326.9,265.2,323.1,265.2z M311.6,265.3c-1.9,0-3.8,0-5.7,0c0,1.9,0,3.8,0,5.7c1.9,0,3.8,0,5.7,0
					C311.6,269,311.6,267.2,311.6,265.3z M323.1,236.5c1.9,0,3.8,0,5.7,0c0-1.9,0-3.8,0-5.7c-1.9,0-3.8,0-5.7,0
					C323.1,232.8,323.1,234.6,323.1,236.5z"/>
				<path class="st4" d="M237.1,219.3c0-13.4,0-26.7,0-40.1c13.4,0,26.7,0,40.1,0c0,13.3,0,26.7,0,40.1
					C263.9,219.3,250.5,219.3,237.1,219.3z M242.9,185c0,9.6,0,19.1,0,28.6c9.6,0,19.1,0,28.6,0c0-9.6,0-19.1,0-28.6
					C262,185,252.4,185,242.9,185z"/>
				<path class="st4" d="M357.5,219.3c-13.4,0-26.7,0-40.1,0c0-13.4,0-26.7,0-40.1c13.3,0,26.7,0,40.1,0
					C357.5,192.6,357.5,205.9,357.5,219.3z M351.8,185c-9.6,0-19.1,0-28.6,0c0,9.6,0,19.1,0,28.6c9.6,0,19.1,0,28.6,0
					C351.8,204.1,351.8,194.5,351.8,185z"/>
				<path class="st4" d="M237.2,259.5c13.4,0,26.7,0,40.1,0c0,13.4,0,26.7,0,40.1c-13.3,0-26.7,0-40.1,0
					C237.2,286.3,237.2,272.9,237.2,259.5z M271.5,265.3c-9.6,0-19.1,0-28.6,0c0,9.6,0,19.1,0,28.6c9.6,0,19.1,0,28.6,0
					C271.5,284.3,271.5,274.8,271.5,265.3z"/>
				<path class="st4" d="M288.7,202.2c0-3.8,0-7.6,0-11.5c-1.9,0-3.8,0-5.7,0c0-3.8,0-7.6,0-11.4c9.5,0,19,0,28.6,0
					c0,3.8,0,7.6,0,11.4c-1.9,0-3.8,0-5.7,0c0,1.9,0,3.8,0,5.7c1.9,0,3.8,0,5.7,0c0,3.8,0,7.6,0,11.4c-1.9,0-3.8,0-5.7,0
					c0-1.9,0-3.8,0-5.7c-1.9,0-3.8,0-5.7,0c0-1.9,0-3.8,0-5.7c-1.9,0-3.8,0-5.7,0c0,1.9,0,3.8,0,5.7
					C292.5,202.2,290.6,202.2,288.7,202.2L288.7,202.2z M294.5,190.7c1.9,0,3.8,0,5.7,0c0-1.9,0-3.8,0-5.7c-1.9,0-3.8,0-5.7,0
					C294.5,186.9,294.5,188.8,294.5,190.7z"/>
				<path class="st4" d="M265.8,230.8c0,1.9,0,3.8,0,5.7c3.8,0,7.6,0,11.4,0c0,1.9,0,3.8,0,5.7c-5.7,0-11.4,0-17.2,0
					c0,3.8,0,7.6,0,11.5c-7.7,0-15.3,0-22.9,0c0-3.8,0-7.6,0-11.4c1.9,0,3.8,0,5.7,0c0,1.9,0,3.8,0,5.7c3.8,0,7.6,0,11.5,0
					c0-5.7,0-11.4,0-17.2l0,0C258.1,230.8,262,230.8,265.8,230.8L265.8,230.8z"/>
				<path class="st4" d="M288.7,282.4c0,1.9,0,3.8,0,5.7c1.9,0,3.8,0,5.7,0c0,1.9,0,3.8,0,5.7c1.9,0,3.8,0,5.7,0c0,1.9,0,3.8,0,5.7
					c-5.7,0-11.4,0-17.1,0c0-5.7,0-11.4,0-17.2C284.9,282.4,286.8,282.4,288.7,282.4L288.7,282.4z"/>
				<path class="st4" d="M254.3,230.8c-3.8,0-7.6,0-11.5,0c0,1.9,0,3.8,0,5.7c-1.9,0-3.8,0-5.7,0c0-3.8,0-7.6,0-11.4
					c5.7,0,11.4,0,17.2,0C254.3,227,254.3,228.9,254.3,230.8L254.3,230.8z"/>
				<path class="st4" d="M357.5,242.3c-1.9,0-3.8,0-5.7,0c0-3.8,0-7.6,0-11.4c-1.9,0-3.8,0-5.7,0c0-1.9,0-3.8,0-5.7
					c3.8,0,7.6,0,11.4,0C357.5,230.8,357.5,236.5,357.5,242.3z"/>
				<path class="st4" d="M265.8,230.8c0-1.9,0-3.8,0-5.7c3.8,0,7.6,0,11.4,0c0,1.9,0,3.8,0,5.7C273.4,230.8,269.6,230.8,265.8,230.8
					C265.8,230.8,265.8,230.8,265.8,230.8z"/>
				<path class="st4" d="M346.1,253.8c0-1.9,0-3.8,0-5.7c1.9,0,3.8,0,5.7,0c0,1.9,0,3.8,0,5.7C349.8,253.8,347.9,253.8,346.1,253.8
					L346.1,253.8z"/>
				<path class="st4" d="M351.8,259.5c1.9,0,3.8,0,5.7,0c0,1.9,0,3.8,0,5.7c-1.9,0-3.8,0-5.7,0C351.8,263.3,351.8,261.4,351.8,259.5
					z"/>
				<path class="st4" d="M305.9,219.4c0-1.9,0-3.8,0-5.7c1.9,0,3.8,0,5.7,0c0,1.9,0,3.8,0,5.7C309.7,219.4,307.8,219.4,305.9,219.4
					L305.9,219.4z"/>
				<path class="st4" d="M288.7,271c-1.9,0-3.8,0-5.7,0c0-1.9,0-3.8,0-5.7c1.9,0,3.8,0,5.7,0l0,0C288.7,267.1,288.7,269.1,288.7,271
					L288.7,271z"/>
				<path class="st4" d="M346.1,276.7c0-1.9,0-3.8,0-5.7c1.9,0,3.8,0,5.7,0c0,1.9,0,3.8,0,5.7C349.8,276.7,347.9,276.7,346.1,276.7
					L346.1,276.7z"/>
				<path class="st4" d="M340.3,236.6c1.9,0,3.8,0,5.7,0c0,1.9,0,3.8,0,5.7c-1.9,0-3.8,0-5.7,0l0,0
					C340.3,240.4,340.3,238.5,340.3,236.6L340.3,236.6z"/>
				<path class="st4" d="M311.6,293.9c-1.9,0-3.8,0-5.7,0c0-1.9,0-3.8,0-5.7c1.9,0,3.8,0,5.7,0C311.6,290.1,311.6,292,311.6,293.9z"
					/>
				<path class="st4" d="M323.1,293.9c0,1.9,0,3.8,0,5.7c-1.9,0-3.8,0-5.7,0c0-1.9,0-3.8,0-5.7C319.3,293.9,321.2,293.9,323.1,293.9
					L323.1,293.9z"/>
				<path class="st4" d="M357.5,299.6c-1.9,0-3.8,0-5.7,0c0-1.9,0-3.8,0-5.7c1.9,0,3.8,0,5.7,0C357.5,295.8,357.5,297.7,357.5,299.6
					z"/>
				<path class="st4" d="M311.7,248c-1.9,0-3.8,0-5.7,0c0-1.9,0-3.8,0-5.7c1.9,0,3.8,0,5.7,0C311.6,244.2,311.6,246.1,311.7,248
					C311.6,248,311.7,248,311.7,248z"/>
				<path class="st4" d="M265.8,207.9c-5.7,0-11.4,0-17.1,0c0-5.7,0-11.4,0-17.1c5.7,0,11.4,0,17.1,0
					C265.8,196.4,265.8,202.1,265.8,207.9z"/>
				<path class="st4" d="M328.9,207.9c0-5.7,0-11.4,0-17.1c5.7,0,11.4,0,17.1,0c0,5.7,0,11.4,0,17.1
					C340.3,207.9,334.6,207.9,328.9,207.9z"/>
				<path class="st4" d="M248.6,288.1c0-5.7,0-11.4,0-17.1c5.7,0,11.4,0,17.1,0c0,5.7,0,11.4,0,17.1
					C260.1,288.1,254.3,288.1,248.6,288.1z"/>
			</g>
			<g>
				<polyline class="st17" points="253.8,165.7 228.7,165.7 228.7,193.4 				"/>
				<polyline class="st17" points="345.1,165.7 370.2,165.7 370.2,193.4 				"/>
				<polyline class="st17" points="253.8,311.5 228.7,311.5 228.7,283.8 				"/>
				<polyline class="st17" points="345.1,311.5 370.2,311.5 370.2,283.8 				"/>
			</g>
		</g>
	</g>
</g>
<g id="Character">
	<g>
		<path class="st8" d="M177.4,200.3h-8.3c-1.5,0-2.7-1.2-2.7-2.7v-23.3c0-1.5,1.2-2.7,2.7-2.7h8.3c1.5,0,2.7,1.2,2.7,2.7v23.3
			C180.1,199.1,178.9,200.3,177.4,200.3z"/>
		<rect x="167.6" y="174.2" class="st18" width="11.3" height="23.6"/>
		<g>
			<path class="st18" d="M57.7,312.2c4.6,0.1,8.7-1.7,11.3-3.3c-0.2,6.4-0.4,11.2-0.4,11.2s1.1,1.9,1.6,2.7c0.5,0.8,5.2,3.6,5.8,6
				c0.5,2.5,3,3.8,2.7,7.4c-0.3,3.6-3.3-0.3-2.7,0.5c0.5,0.8,2.2,3.6,2.2,6s-5.2,2.5-7.1,0.8c-1.9-1.6-8.2-5.5-8.8-9.1l-2.1-8
				L57.7,312.2z"/>
			<path class="st18" d="M69.1,332l1.3,6c0,0,4.3,3.3,4.7,5.7"/>
			<line class="st18" x1="76" y1="336.9" x2="74.1" y2="333"/>
		</g>
		<g>
			<g>
				<path class="st18" d="M90.7,458.8c0,0-1.6,12.9-0.3,14.4c1.2,1.6,3.1,3.5,5.9,3.8c2.8,0.3,7.5-1.2,7.5-1.2s4.7,1.4,9.7,0.9
					c5-0.5,8.3-2.4,8.7-4.9c0.3-2.4-4-3.5-6.4-6.1c-2.4-2.6-6.3-7.2-6.3-7.2l-1-3.4c0,0-5.9,3-9.7,3.1c-3.8,0.2-6.4-0.5-6.4-0.5
					L90.7,458.8z"/>
				<path class="st18" d="M122.2,471.8c0-0.3,0-0.6-0.1-0.9c-1.2,0.5-2.6,1.1-4.4,1.7c-5.2,1.9-7.8,0.3-10.4,0.3
					c-2.6,0-2.8,2.8-10.1,0.9c-4.8-1.2-6.6-2.9-7.2-3.8c0,1.5,0.1,2.7,0.5,3.1c1.2,1.6,3.1,3.5,5.9,3.8c2.8,0.3,7.5-1.2,7.5-1.2
					s4.7,1.4,9.7,0.9C118.5,476.2,121.8,474.2,122.2,471.8z"/>
			</g>
			<path class="st19" d="M81.4,299c0,0-7,23.5-4.5,40s14.5,47.5,14.5,47.5S89.9,398,89.9,402s-3.5,11.5-1,19.5s2.5,29,2.5,30.5
				s-1,9.5-1,9.5s2,3,9.5,3c7.5,0,9.5-6,9.5-6s7.5-44.5,7.5-51.5s8-33,11-43.5s6.7-17.2,8.7-20.7s0.8-45.8,0.8-45.8l-57-5L81.4,299z
				"/>
		</g>
		<g>
			<g>
				<path class="st18" d="M120.8,462.1c0,0,7.5,3,11.1,4.7s6.1,1.9,6.1,4.7c0,2.8-6.6,5.6-10.6,6.3s-10.4,0.5-11.1,0.7
					c-0.7,0.2-13.7,2.1-15.3-1.2c-1.6-3.3,0.2-14.6,0.2-14.6S110.2,464.5,120.8,462.1z"/>
				<path class="st18" d="M116.2,478.4c0.7-0.2,7.1,0,11.1-0.7s10.6-3.5,10.6-6.3c0-0.4-0.1-0.8-0.2-1.1c-1.4,0.8-3.2,1.7-5.2,2.6
					c-4.9,2.1-11.3,3.5-21,3.3c-5.3-0.1-8.9-0.8-11.1-1.4c0.1,0.9,0.3,1.7,0.5,2.3C102.5,480.5,115.6,478.6,116.2,478.4z"/>
			</g>
			<path class="st19" d="M137.9,301c0,0,3,40.5-3,71s-16,72-16.5,74s3.5,7.5,3.5,7.5v8c0,0-3.5,3.5-11.5,4.5s-10.5-1.5-10.5-1.5
				s-2-13.5-2-23s2-42,2-42s4.5-33,4-38c-0.5-5-2-20.5-2-20.5l-8-9.5"/>
		</g>
		<g>
			<g>
				<g>
					<path class="st18" d="M53.9,293.4l15.7-2.8c-0.1,2.1,0.4-11.3,0.4-12.3c0-2.2,5.2-15.9,5.2-15.9s4.1,17.9,4.1,20.1
						c0,2.2-1.6,19,0.5,21.2c2.2,2.2,9.9,6.6,26.9,6c17-0.5,29.7-1.9,33-5.2c3.3-3.3-0.6-13.5-0.8-14.8c-0.3-1.4,4.4-37.4,4.4-37.4
						s18.4,19.2,29.4,16.5c11-2.7,5.8-45.6,5.8-45.6l0.5-12.4c0,0,3.6-9.1,3.6-10.4c0-1.4-3.6-11.3-3.6-11.3s-2.2-1.9-3.6,2.7
						c-1.4,4.7-1.6,7.7-1.6,7.7s-3.3,2.5-3,6c0.3,3.6,1.4,6.3,1.4,6.3l-7.4,24.2c0,0-8.2-9.3-8.8-11c-0.6-1.6-0.3-7.7-7.1-11.3
						c-6.9-3.6-20.9-3.8-20.9-3.8l-38.8,0.3c0,0-18.1,1.6-22.3,5.2c-4.1,3.6-16.8,48.9-16.8,55.8c0,2.1,1.1,8.8,2.7,17L53.9,293.4z"
						/>
				</g>
			</g>
			<path class="st9" d="M179.1,188.9c0,0-0.8,6.9-0.3,8.2c0.6,1.4,1.1,4.7,0.6,7.4"/>
		</g>
		<g>
			<path class="st6" d="M172.8,268.7c11-2.7,5.8-45.6,5.8-45.6l0.1-2.8c-3.1-2.3-6.2-2.3-8.5-1.7l-5.3,17.4c0,0-8.2-9.3-8.8-11
				c-0.6-1.6-0.3-7.7-7.1-11.3c-6.9-3.6-20.9-3.8-20.9-3.8l-38.8,0.3c0,0-18.1,1.6-22.3,5.2c-4.1,3.6-16.8,48.9-16.8,55.8
				c0,4.1,4.1,24.4,7.5,41c4.6,0.1,8.7-1.7,11.3-3.3c0.4-11.9,1-29.2,1-30.6c0-2.2,5.2-15.9,5.2-15.9s4.1,17.9,4.1,20.1
				c0,2.2-1.6,19,0.5,21.2c2.2,2.2,9.9,6.6,26.9,6c17-0.5,29.7-1.9,33-5.2c3.3-3.3-0.6-13.5-0.8-14.8c-0.3-1.4,4.4-37.4,4.4-37.4
				S161.8,271.4,172.8,268.7z"/>
			<g>
				<polyline class="st9" points="69.8,247.2 75.2,262.3 64.1,243.3 				"/>
				<line class="st9" x1="66.7" y1="238.7" x2="68.7" y2="244"/>
				<path class="st9" d="M104.8,248.3c2.4,5.5,6,12.3,10.3,16.7"/>
				<path class="st9" d="M101.4,239.7c0,0,0.8,2.3,2.1,5.5"/>
				<path class="st9" d="M107.4,258c0,0,6,12,9,14.3"/>
				<line class="st9" x1="152.8" y1="243.4" x2="155.1" y2="241.3"/>
				<polyline class="st9" points="149.1,240.3 143.4,252.2 150.7,245.4 				"/>
				<path class="st9" d="M175.1,247c-0.3-2.3-10.2-11.1-10.2-11.1s10.2,4.1,12.9,7.7"/>
			</g>
		</g>
		<path class="st18" d="M131.8,173.8c0,0,0.5,6.9,1.4,8c0.8,1.1,1.4,9.6,0,12.1s-2.2,5.5-3,6.3c-0.8,0.8-3.8,0.8-4.9,0.8
			c-1.1,0-13.5-0.6-13.5-0.6l0.3-17.3C112,183.2,115.1,170.2,131.8,173.8z"/>
		<path class="st8" d="M109.8,154.6c0,0-11.3,3.6-13.7,13.5c-2.5,9.9,5.5,21.2,5.5,21.2s2.2,8,4.1,9.6c1.9,1.6,9.6,0,12.1-0.5
			c2.5-0.5,8-15.4,8-15.4s0,3.6,1.6,3.6s1.4-4.7,1.4-5.5s7.7-6.6,7.7-16.5c0-9.9-8.5-14.3-16.5-13.7
			C112,151.3,109.8,154.6,109.8,154.6z"/>
		<g>
			<path class="st6" d="M133.2,209.3c0,0-1.6-5.8-2.5-6.6c-0.8-0.8-6-4.1-14.6-4.7c-8.5-0.5-21.2-0.3-22.3,0.3
				c-1.1,0.5-1.4,5.2-1.4,5.2s-3.6,3.3-4.4,5.2c-0.8,1.9-1.6,2.7,6,9.1c7.7,6.3,11.8,8.8,19.8,6.9c8-1.9,19.5-13.5,19.5-13.5
				L133.2,209.3z"/>
			<path class="st9" d="M113.5,213.2c7.7-2.4,15.5-7.2,15.5-7.2"/>
			<path class="st9" d="M92.5,204.6c0,0,4.9,9.9,13.7,9.9c1.1,0,2.3-0.1,3.6-0.4"/>
		</g>
	</g>
</g>
</svg>
